HIERARCHY
ROOT root
{
	OFFSET	0	13.1	24.9
	CHANNELS 6  Xposition Yposition Zposition Xrotation Yrotation Zrotation
	JOINT spine_1
	{
		OFFSET	0	9.99999	0
		CHANNELS 3  Xrotation Yrotation Zrotation
		JOINT spine_2
		{
			OFFSET	0	112	-10
			CHANNELS 3  Xrotation Yrotation Zrotation
			JOINT spine_3
			{
				OFFSET	0	206.5	19.3
				CHANNELS 3  Xrotation Yrotation Zrotation
				JOINT spine_4
				{
					OFFSET	0	110.4	14.6
					CHANNELS 3  Xrotation Yrotation Zrotation
					JOINT neck_1
					{
						OFFSET	0	71.8	-50.3
						CHANNELS 3  Xrotation Yrotation Zrotation
						JOINT neck_2
						{
							OFFSET	0	86.2	-25.8
							CHANNELS 3  Xrotation Yrotation Zrotation
							JOINT head_ee
							{
								OFFSET	0	179.8	-8.7
								CHANNELS 3  Xrotation Yrotation Zrotation
								End Site
								{
									OFFSET	1	0	0
								}
							}
						}
					}
					JOINT left_clavicle
					{
						OFFSET	-43.2	22.4	-70.8
						CHANNELS 3  Xrotation Yrotation Zrotation
						JOINT left_shoulder
						{
							OFFSET	-93.9	-5.79999	48.7
							CHANNELS 3  Xrotation Yrotation Zrotation
							JOINT left_elbow
							{
								OFFSET	-291.4	-30.8	15.2
								CHANNELS 3  Xrotation Yrotation Zrotation
								JOINT left_lowarm_twist
								{
									OFFSET	-110.7	-3.89999	13.6
									CHANNELS 3  Xrotation Yrotation Zrotation
									JOINT left_hand
									{
										OFFSET	-110.7	-3.89999	13.6
										CHANNELS 3  Xrotation Yrotation Zrotation
										JOINT left_ee
										{
											OFFSET	-80.8	-5.10001	12.1
											CHANNELS 3  Xrotation Yrotation Zrotation
											End Site
											{
												OFFSET	1	0	0
											}
										}
									}
								}
							}
						}
					}
					JOINT right_clavicle
					{
						OFFSET	43.2	22.4	-70.8
						CHANNELS 3  Xrotation Yrotation Zrotation
						JOINT right_shoulder
						{
							OFFSET	93.9	-5.79999	48.7
							CHANNELS 3  Xrotation Yrotation Zrotation
							JOINT right_elbow
							{
								OFFSET	291.4	-30.8	15.2
								CHANNELS 3  Xrotation Yrotation Zrotation
								JOINT right_lowarm_twist
								{
									OFFSET	110.7	-3.89999	13.6
									CHANNELS 3  Xrotation Yrotation Zrotation
									JOINT right_hand
									{
										OFFSET	110.7	-3.89999	13.6
										CHANNELS 3  Xrotation Yrotation Zrotation
										JOINT right_ee
										{
											OFFSET	80.8	-5.10001	12.1
											CHANNELS 3  Xrotation Yrotation Zrotation
											End Site
											{
												OFFSET	1	0	0
											}
										}
									}
								}
							}
						}
					}
				}
			}
		}
	}
	JOINT left_hip
	{
		OFFSET	-82.8	-127.5	0.300001
		CHANNELS 3  Xrotation Yrotation Zrotation
		JOINT left_knee
		{
			OFFSET	-28.2	-396.7	2.2
			CHANNELS 3  Xrotation Yrotation Zrotation
			JOINT left_ankle
			{
				OFFSET	-11.7	-411.3	35.4
				CHANNELS 3  Xrotation Yrotation Zrotation
				JOINT left_toes
				{
					OFFSET	0	-60	-88.6
					CHANNELS 3  Xrotation Yrotation Zrotation
					JOINT left_foot_ee
					{
						OFFSET	-22.5	-16.5	-42.2
						CHANNELS 3  Xrotation Yrotation Zrotation
						End Site
						{
							OFFSET	1	0	0
						}
					}
				}
			}
		}
	}
	JOINT right_hip
	{
		OFFSET	82.8	-127.5	0.300001
		CHANNELS 3  Xrotation Yrotation Zrotation
		JOINT right_knee
		{
			OFFSET	28.2	-396.7	2.2
			CHANNELS 3  Xrotation Yrotation Zrotation
			JOINT right_ankle
			{
				OFFSET	11.7	-411.3	35.4
				CHANNELS 3  Xrotation Yrotation Zrotation
				JOINT right_toes
				{
					OFFSET	0	-60	-88.6
					CHANNELS 3  Xrotation Yrotation Zrotation
					JOINT right_foot_ee
					{
						OFFSET	22.5	-16.5	-42.2
						CHANNELS 3  Xrotation Yrotation Zrotation
						End Site
						{
							OFFSET	1	0	0
						}
					}
				}
			}
		}
	}
}
MOTION
Frames: 14
Frame Time: 0.02
1230.61097077 724.207 -1707.30531018 -15.2377512699 45.5040173517 12.6611393326 4.05575 -0.425773 -1.69764 4.0573 -0.316902 -1.72128 4.06591 -0.0722954 -1.74871 4.06181 -0.347523 -1.71536 -12.1697 -4.53962 -1.31608 -12.1981 -7.76956 -2.55336 -0.0 0.0 -0.0 5.79071 8.97805 11.2461 -22.4446 -21.6815 66.5222 0.508035 -14.1262 0.0629473 42.5163 -0.486572 -5.28654 0.0661104 15.9132 6.90844 -0.0 0.0 -0.0 7.96978 27.8679 -14.1576 -18.3863 -3.73303 -67.8373 0.867837 23.2627 -0.178639 -46.2136 3.63488 -4.47037 -6.51894 -20.0832 32.6683 0.0 0.0 0.0 43.7661 -15.9084 4.81726 -67.3815 -3.04751 9.2857 28.0842 8.83579 -3.6833 9.35812 -0.0 -0.0 -0.0 0.0 -0.0 16.0851 -10.8767 -5.37625 -5.12851 -0.176923 -0.766927 37.1581 5.51989 4.68608 39.5005 -0.0 -0.0 0.0 0.0 0.0 
1211.11414702 716.875 -1725.47671245 -15.6303407117 45.4099195194 12.3874858105 4.30554 -0.400598 -1.56603 4.30685 -0.300149 -1.58834 4.31429 -0.0813534 -1.61439 4.31082 -0.335263 -1.5813 -10.8788 -4.06337 -0.00678904 -10.9026 -7.66983 -1.07627 -0.0 0.0 -0.0 5.49966 9.85917 10.721 -24.902 -20.6228 65.7759 0.518892 -14.4156 0.0656238 43.7883 -0.56083 -5.43135 0.2169 17.6227 8.49263 -0.0 0.0 -0.0 8.13506 29.355 -14.3504 -17.7368 -2.50552 -66.2564 0.975138 25.7826 -0.223186 -45.4253 3.54573 -4.42252 -6.45591 -20.1613 32.14 0.0 0.0 0.0 44.9492 -15.4924 5.10056 -61.4679 -2.36056 8.68515 17.4682 13.4738 -2.42593 8.31717 -0.0 -0.0 -0.0 0.0 -0.0 14.6388 -10.3436 -5.46963 -5.32042 -0.182205 -0.795906 34.7998 11.8247 4.58786 40.1213 -0.0 -0.0 0.0 0.0 0.0 
1188.68974485 714.467 -1731.40030308 -15.6436112462 46.5009992135 13.0176368399 4.38757 -0.40558 -1.75446 4.38923 -0.293135 -1.7767 4.39717 -0.0513886 -1.79998 4.39281 -0.334972 -1.76929 -11.8159 -4.12994 -0.218791 -11.8458 -7.68454 -1.36079 -0.0 0.0 -0.0 5.57462 11.2315 10.8373 -25.427 -20.1806 65.4054 0.481793 -13.4237 0.0566988 43.3698 -0.536045 -5.38389 0.153817 20.01 9.00136 -0.0 0.0 -0.0 8.88265 29.0566 -16.0334 -18.4277 -1.61975 -66.0065 1.13956 29.4439 -0.299433 -45.9567 3.60575 -4.4549 -6.91424 -22.4867 33.3266 0.0 0.0 0.0 46.4823 -15.7881 5.55536 -59.9161 -2.19093 8.5162 11.9815 17.6237 -1.71642 7.36285 -0.0 -0.0 -0.0 0.0 -0.0 13.2489 -9.60264 -5.62838 -4.52797 -0.159768 -0.67636 32.7566 16.5092 4.51188 39.8753 -0.0 -0.0 0.0 0.0 0.0 
1163.92231222 715.704 -1735.78811019 -15.7710399979 49.0582494141 13.6590989756 4.36203 -0.347256 -1.73604 4.36368 -0.236101 -1.75461 4.36979 0.00302819 -1.77042 4.36552 -0.276571 -1.74869 -13.4331 -4.20838 -0.524485 -13.4728 -7.69011 -1.78439 -0.0 0.0 -0.0 5.75578 12.7426 11.1203 -26.1314 -19.7078 64.7015 0.459811 -12.8319 0.0517062 42.6984 -0.497007 -5.30737 0.0403774 23.4175 9.58416 -0.0 0.0 -0.0 8.48854 27.7009 -15.3196 -18.3248 -0.153546 -64.9431 1.42871 35.2866 -0.454425 -46.508 3.66834 -4.48792 -7.53322 -25.4588 34.8096 0.0 0.0 0.0 48.264 -15.8488 5.16014 -57.3864 -1.92447 8.23124 4.76605 21.959 -0.709137 6.25022 -0.0 -0.0 -0.0 0.0 -0.0 11.4637 -9.58115 -5.46326 -4.24346 -0.151308 -0.633516 31.3054 21.8569 4.54955 39.4019 -0.0 -0.0 0.0 0.0 0.0 
1121.45571391 710.264 -1765.00295312 -16.2540464805 51.0012836994 14.7185758977 4.63057 -0.0579273 -1.70704 4.63219 0.0507976 -1.70727 4.62946 0.273388 -1.68601 4.6255 0.00372301 -1.70802 -12.6069 -4.79252 -0.378229 -12.6534 -8.86567 -1.76093 -0.0 0.0 -0.0 5.1931 13.81 10.1539 -28.0632 -14.6654 64.076 0.53063 -14.7277 0.0685769 44.5421 -0.606349 -5.51638 1.05072 25.7266 16.2587 -0.0 0.0 -0.0 8.05077 28.2027 -14.2983 -17.2837 0.144823 -63.1327 1.59477 38.306 -0.553923 -43.5101 3.33196 -4.30121 -8.80906 -25.8446 44.3114 0.0 0.0 0.0 48.0303 -16.0256 5.52466 -51.5682 -1.36147 7.5338 12.6042 27.5147 -1.88618 3.14276 -0.0 -0.0 -0.0 0.0 -0.0 8.37652 -9.49757 -5.55011 -7.40482 -0.233303 -1.11168 36.0265 24.0875 5.1628 38.6543 -0.0 -0.0 0.0 0.0 0.0 
1108.49979239 703.596 -1776.72625952 -17.5305777244 51.602939897 15.5705781183 4.69647 0.0738853 -1.73828 4.69813 0.18433 -1.73006 4.6913 0.406986 -1.69159 4.68733 0.134765 -1.73462 -12.3511 -5.36443 -0.886872 -12.4017 -9.61857 -2.3941 -0.0 0.0 -0.0 4.85189 13.8972 9.58591 -29.3274 -14.345 64.1761 0.607434 -16.7469 0.0894115 42.9312 -0.510443 -5.33396 0.57378 26.4733 13.7211 -0.0 0.0 -0.0 7.87482 28.1736 -13.9145 -16.0296 0.32097 -61.3668 1.6323 38.9558 -0.577353 -42.6822 3.24083 -4.24658 -8.35782 -22.3201 44.9958 0.0 0.0 0.0 47.5577 -17.3925 5.24229 -38.4977 -0.373967 5.78682 13.0802 24.0711 -1.91633 -0.312603 0.0 0.0 -0.0 0.0 -0.0 6.81905 -9.4897 -5.94264 -5.11658 -0.176591 -0.765126 37.8994 22.6351 5.27797 36.3007 -0.0 -0.0 0.0 0.0 0.0 
1101.98964844 703.596 -1770.90926761 -18.0222103404 52.7924508654 16.1927593935 4.69647 0.0738853 -1.73828 4.69813 0.18433 -1.73006 4.6913 0.406986 -1.69159 4.68733 0.134765 -1.73462 -12.3511 -5.36443 -0.886872 -12.4017 -9.61857 -2.3941 -0.0 0.0 -0.0 4.85189 13.8972 9.58591 -29.3274 -14.345 64.1761 0.607434 -16.7469 0.0894115 42.9312 -0.510443 -5.33396 0.57378 26.4733 13.7211 -0.0 0.0 -0.0 7.87482 28.1736 -13.9145 -16.0296 0.32097 -61.3668 1.6323 38.9558 -0.577353 -42.6822 3.24083 -4.24658 -8.35782 -22.3201 44.9958 0.0 0.0 0.0 47.5577 -17.3925 5.24229 -38.4977 -0.373967 5.78682 13.0802 24.0711 -1.91633 -0.312603 0.0 0.0 -0.0 0.0 -0.0 6.81905 -9.4897 -5.94264 -5.11658 -0.176591 -0.765126 37.8994 22.6351 5.27797 36.3007 -0.0 -0.0 0.0 0.0 0.0 
1094.75887888 703.596 -1764.13931505 -18.6236012162 54.1378818004 16.9411726796 4.69647 0.0738853 -1.73828 4.69813 0.18433 -1.73006 4.6913 0.406986 -1.69159 4.68733 0.134765 -1.73462 -12.3511 -5.36443 -0.886872 -12.4017 -9.61857 -2.3941 -0.0 0.0 -0.0 4.85189 13.8972 9.58591 -29.3274 -14.345 64.1761 0.607434 -16.7469 0.0894115 42.9312 -0.510443 -5.33396 0.57378 26.4733 13.7211 -0.0 0.0 -0.0 7.87482 28.1736 -13.9145 -16.0296 0.32097 -61.3668 1.6323 38.9558 -0.577353 -42.6822 3.24083 -4.24658 -8.35782 -22.3201 44.9958 0.0 0.0 0.0 47.5577 -17.3925 5.24229 -38.4977 -0.373967 5.78682 13.0802 24.0711 -1.91633 -0.312603 0.0 0.0 -0.0 0.0 -0.0 6.81905 -9.4897 -5.94264 -5.11658 -0.176591 -0.765126 37.8994 22.6351 5.27797 36.3007 -0.0 -0.0 0.0 0.0 0.0 
1089.49979303 712.722 -1775.71693813 -18.9396085958 53.3320340986 17.0024020639 4.84532 0.129739 -1.75406 4.847 0.241074 -1.74226 4.83834 0.460502 -1.69752 4.83436 0.186675 -1.74892 -14.5664 -5.13308 -0.706023 -14.6366 -9.38253 -2.3365 -0.0 0.0 -0.0 5.39553 13.2603 10.5008 -27.936 -14.4858 64.1203 0.641655 -17.6333 0.0995256 42.8254 -0.504322 -5.32188 -0.103064 27.6618 10.3026 -0.0 0.0 -0.0 8.09843 29.2868 -14.278 -14.8667 0.753994 -60.3766 1.6027 38.4443 -0.558847 -40.9273 3.05031 -4.12646 -8.06511 -19.8735 45.3702 0.0 0.0 0.0 47.8706 -19.0425 5.17909 -29.5795 0.0599446 4.48886 13.6888 21.658 -1.97848 -1.5706 0.0 0.0 -0.0 0.0 -0.0 6.37701 -9.42908 -6.53418 -5.07197 -0.175349 -0.758393 38.0913 22.3605 5.28332 35.3463 -0.0 -0.0 0.0 0.0 0.0 
1085.64707227 712.722 -1772.04720946 -19.2686916282 54.0304336268 17.4108200956 4.84532 0.129739 -1.75406 4.847 0.241074 -1.74226 4.83834 0.460502 -1.69752 4.83436 0.186675 -1.74892 -14.5664 -5.13308 -0.706023 -14.6366 -9.38253 -2.3365 -0.0 0.0 -0.0 5.39553 13.2603 10.5008 -27.936 -14.4858 64.1203 0.641655 -17.6333 0.0995256 42.8254 -0.504322 -5.32188 -0.103064 27.6618 10.3026 -0.0 0.0 -0.0 8.09843 29.2868 -14.278 -14.8667 0.753994 -60.3766 1.6027 38.4443 -0.558847 -40.9273 3.05031 -4.12646 -8.06511 -19.8735 45.3702 0.0 0.0 0.0 47.8706 -19.0425 5.17909 -29.5795 0.0599446 4.48886 13.6888 21.658 -1.97848 -1.5706 0.0 0.0 -0.0 0.0 -0.0 6.37701 -9.42908 -6.53418 -5.07197 -0.175349 -0.758393 38.0913 22.3605 5.28332 35.3463 -0.0 -0.0 0.0 0.0 0.0 
1068.26902825 710.46 -1783.52741799 -20.1263804862 52.97180775 18.1953482879 4.91895 0.130658 -1.60426 4.92036 0.232464 -1.5927 4.91276 0.430922 -1.55083 4.90944 0.180623 -1.5994 -13.8475 -2.12183 0.735261 -13.8607 -4.49673 0.037785 -0.0 0.0 -0.0 5.46836 12.7921 10.6314 -25.7928 -9.30262 65.4354 0.430767 -12.0458 0.0454498 38.0409 -0.251307 -4.76488 -0.835251 18.4889 2.44743 -0.0 0.0 -0.0 7.90556 28.5163 -13.9433 -14.5936 5.21724 -57.8058 1.89326 43.1591 -0.74887 -46.8303 3.70508 -4.50694 -9.26346 -25.4936 48.921 0.0 0.0 0.0 47.2804 -19.3029 4.88867 -17.7472 0.315651 2.6943 19.0822 10.9178 -2.62178 -7.57588 0.0 0.0 -0.0 0.0 -0.0 4.98816 -11.6462 -6.8414 -0.764772 -0.0307338 -0.113339 33.521 22.7789 4.83528 34.3615 -0.0 -0.0 0.0 0.0 0.0 
1065.09771737 710.46 -1780.37019084 -20.4011324837 53.5275298499 18.5382479466 4.91895 0.130658 -1.60426 4.92036 0.232464 -1.5927 4.91276 0.430922 -1.55083 4.90944 0.180623 -1.5994 -13.8475 -2.12183 0.735261 -13.8607 -4.49673 0.037785 -0.0 0.0 -0.0 5.46836 12.7921 10.6314 -25.7928 -9.30262 65.4354 0.430767 -12.0458 0.0454498 38.0409 -0.251307 -4.76488 -0.835251 18.4889 2.44743 -0.0 0.0 -0.0 7.90556 28.5163 -13.9433 -14.5936 5.21724 -57.8058 1.89326 43.1591 -0.74887 -46.8303 3.70508 -4.50694 -9.26346 -25.4936 48.921 0.0 0.0 0.0 47.2804 -19.3029 4.88867 -17.7472 0.315651 2.6943 19.0822 10.9178 -2.62178 -7.57588 0.0 0.0 -0.0 0.0 -0.0 4.98816 -11.6462 -6.8414 -0.764772 -0.0307338 -0.113339 33.521 22.7789 4.83528 34.3615 -0.0 -0.0 0.0 0.0 0.0 
1061.61484306 710.46 -1776.82629323 -20.7171548105 54.1434057688 18.9296851461 4.91895 0.130658 -1.60426 4.92036 0.232464 -1.5927 4.91276 0.430922 -1.55083 4.90944 0.180623 -1.5994 -13.8475 -2.12183 0.735261 -13.8607 -4.49673 0.037785 -0.0 0.0 -0.0 5.46836 12.7921 10.6314 -25.7928 -9.30262 65.4354 0.430767 -12.0458 0.0454498 38.0409 -0.251307 -4.76488 -0.835251 18.4889 2.44743 -0.0 0.0 -0.0 7.90556 28.5163 -13.9433 -14.5936 5.21724 -57.8058 1.89326 43.1591 -0.74887 -46.8303 3.70508 -4.50694 -9.26346 -25.4936 48.921 0.0 0.0 0.0 47.2804 -19.3029 4.88867 -17.7472 0.315651 2.6943 19.0822 10.9178 -2.62178 -7.57588 0.0 0.0 -0.0 0.0 -0.0 4.98816 -11.6462 -6.8414 -0.764772 -0.0307338 -0.113339 33.521 22.7789 4.83528 34.3615 -0.0 -0.0 0.0 0.0 0.0 
1056.47424709 710.46 -1771.44337342 -21.213317221 55.0635081845 19.5383302957 4.91895 0.130658 -1.60426 4.92036 0.232464 -1.5927 4.91276 0.430922 -1.55083 4.90944 0.180623 -1.5994 -13.8475 -2.12183 0.735261 -13.8607 -4.49673 0.037785 -0.0 0.0 -0.0 5.46836 12.7921 10.6314 -25.7928 -9.30262 65.4354 0.430767 -12.0458 0.0454498 38.0409 -0.251307 -4.76488 -0.835251 18.4889 2.44743 -0.0 0.0 -0.0 7.90556 28.5163 -13.9433 -14.5936 5.21724 -57.8058 1.89326 43.1591 -0.74887 -46.8303 3.70508 -4.50694 -9.26346 -25.4936 48.921 0.0 0.0 0.0 47.2804 -19.3029 4.88867 -17.7472 0.315651 2.6943 19.0822 10.9178 -2.62178 -7.57588 0.0 0.0 -0.0 0.0 -0.0 4.98816 -11.6462 -6.8414 -0.764772 -0.0307338 -0.113339 33.521 22.7789 4.83528 34.3615 -0.0 -0.0 0.0 0.0 0.0 
